<?xml version="1.0" encoding="UTF-8"?>
<svg id="Layer_1" xmlns="http://www.w3.org/2000/svg" version="1.1" xmlns:xlink="http://www.w3.org/1999/xlink" viewBox="0 0 792 612">
  <!-- Generator: Adobe Illustrator 30.2.1, SVG Export Plug-In . SVG Version: 2.1.1 Build 1)  -->
  <defs>
    <style>
      .st0 {
        fill: #000f42;
        font-size: 24.48px;
      }

      .st0, .st1, .st2, .st3, .st4 {
        isolation: isolate;
      }

      .st0, .st4 {
        font-family: Arial-BoldMT, Arial;
        font-weight: 700;
      }

      .st5 {
        fill-rule: evenodd;
      }

      .st5, .st1, .st3, .st4 {
        fill: #fff;
      }

      .st1 {
        opacity: .75;
      }

      .st3 {
        opacity: .25;
      }

      .st6 {
        fill: none;
        stroke: #fff;
        stroke-miterlimit: 10;
        stroke-width: 1.5px;
      }

      .st7 {
        fill: url(#linear-gradient);
      }

      .st4 {
        font-size: 18px;
      }
    </style>
    <linearGradient id="linear-gradient" x1="395.89" y1="-126.72" x2="395.89" y2="-927.45" gradientTransform="translate(0 -318) scale(1 -1)" gradientUnits="userSpaceOnUse">
      <stop offset="0" stop-color="#6aa8c4"/>
      <stop offset="1" stop-color="#aed4e5"/>
    </linearGradient>
  </defs>
  <g id="background">
    <rect id="background_color" class="st7" x="-.11" y="-.5" width="792" height="612"/>
    <g id="title">
      <rect id="title-text-background" class="st1" x="1.58" y=".39" width="270.94" height="36"/>
      <g id="title-text" class="st2">
        <text class="st0" transform="translate(45.3 27.2)"><tspan x="0" y="0">Default Scene</tspan></text>
      </g>
    </g>
    <g id="logo">
      <path id="path1" class="st5" d="M770.31,588.83l-.24.48-.12.6-.24.36-.12.6-.48.96-.12.6-.24.36-.12.6-.48.96-.12.6-.24.36-.12.6-.24.36-.12.6-.48.96-.12.6-.48.96-.12.6-.24.36h3.11l.36-.72.24-.96.24-.36h4.19l.24.24v.24l.24.36v.24l.12.12v.24l.12.12.12.48h3.11l-.24-.48-.12-.6-.24-.36v-.24l-.24-.36-.12-.6-.24-.36-.12-.6-.24-.36-.12-.6-.48-.96-.12-.6-.48-.96v-.24l-.36-.72-.12-.6-.24-.36-.12-.6-.48-.96v-.24l-.12-.12-.12-.48-.12-.12h-3.23.02,0ZM771.99,592.17l.12.12v.24l.12.12.24.96.24.36v.24l.12.12v.24l.12.12v.24l.12.12.24.96-.12.12h-2.51l-.12-.24.12-.12.24-.96.24-.36v-.24l.12-.12v-.24l.12-.12v-.24l.12-.12.24-.96.24-.24h0Z"/>
      <path id="path2-6" class="st5" d="M758.11,588.83v2.39h2.39l.12.12v8.97h2.99v-8.97l.12-.12h2.39v-2.39s-8.01,0-8.01,0Z"/>
      <path id="path3-1" class="st5" d="M750.58,588.83v.24l-.24.36-.12.6-.48.96-.12.6-.24.36-.12.6-.48.96-.12.6-.24.36-.12.6-.24.36-.12.6-.48.96-.12.6-.24.36-.12.6-.24.36v.24l-.24.36v.24l-.12.12-.12.48h3.11v-.24l.36-.72.12-.6.36-.48h4.07l.36.48v.24l.24.36.24.96h3.11v-.24l-.24-.36v-.24l-.24-.36-.12-.6-.48-.96-.12-.6-.24-.36-.12-.6-.48-.96-.12-.6-.24-.36-.12-.6-.24-.36-.12-.6-.48-.96-.12-.6-.24-.36v-.24l-.36-.72v-.24l-.24-.36v-.24h-3.35.02,0ZM752.25,592.17l.24.36v.24l.12.12.24.96.24.36v.24l.12.12v.24l.12.12v.24l.12.12v.24l.24.48-.12.12h-2.63l-.12-.12.12-.12v-.24l.12-.12v-.24l.12-.12.24-.96.24-.36v-.24l.12-.12.24-.96.24-.36h0Z"/>
      <path id="path4-1" class="st5" d="M735.63,588.83v11.48h5.5l.12-.12.72-.12.96-.48.72-.6h.12l.96-1.08.6-1.08v-.24l.24-.48v-.36l.12-.12v-.84l.12-.12v-.24l-.12-.12v-.96l-.12-.12-.24-.96-.6-1.08-.48-.48v-.12l-.96-.84-1.67-.84h-.48l-.12-.12h-5.38v.04h-.01ZM738.62,591.22h1.2l.12.12h.48l.96.48.96,1.08.12.48.12.12v.36l.12.12v1.2l-.12.12v.36l-.12.12v.24l-.24.48-.96.96-.48.24h-.24l-.12.12h-.36l-.12.12h-1.32l-.12-.12v-6.46l.12-.12v-.02h0Z"/>
      <path id="path5-5" class="st5" d="M764.21,574v11.6h2.87v-11.6h-2.87Z"/>
      <path id="path6-6" class="st5" d="M751.3,574v11.6h2.87v-4.66l.12-.12h4.3l.12.12v4.66h2.87v-11.6h-2.87v4.42l-.12.12h-4.3l-.12-.12v-4.42h-2.87Z"/>
      <path id="path7" class="st5" d="M740.78,574v11.6h2.87v-3.71l.12-.12h2.39l.12-.12h.6l.12-.12.6-.12.48-.36h.12l.72-.72.48-.96v-.36l.12-.12v-1.91l-.12-.12-.12-.72-.48-.84-.6-.6-.96-.48h-.36l-.12-.12h-.96l-.12-.12h-4.9v.02h0ZM743.65,576.51l.12-.12h1.55l.12.12.48.12.36.36.12.48.12.12v.6l-.12.12-.12.48-.36.36-.48.24h-1.67l-.12-.12v-2.75h0Z"/>
      <path id="path8" class="st5" d="M731.69,574l-.48.96-.12.6-.24.36v.24l-.36.72-.12.6-.24.36v.24l-.24.36-.12.6-.48.96-.12.6-.24.36-.12.6-.48.96-.12.6-.24.36v.24l-.36.72v.24l-.36.72v.24h3.11v-.24l.12-.12v-.24l.12-.12.24-.96.24-.36h4.3l.12.12.24.96.24.36.12.6h3.11l-.12-.48-.12-.12v-.24l-.24-.36-.12-.6-.48-.96-.12-.6-.48-.96-.12-.6-.24-.36-.12-.6-.24-.36-.12-.6-.24-.36v-.24l-.24-.36-.12-.6-.24-.36-.12-.6-.48-.96v-.24l-.36-.72v-.24l-.12-.12h-3.11.03,0ZM733.24,577.47l.24.36v.24l.12.12v.24l.12.12.24.96.24.36v.24l.12.12v.24l.12.12v.24l.24.48-.12.12h-2.63l-.12-.12.24-.48v-.24l.12-.12v-.24l.12-.12v-.24l.12-.12.24-.96.24-.36.12-.6.24-.36h0Z"/>
      <path id="path9" class="st5" d="M717.34,574v11.6h2.87v-4.3l.12-.12.24.48,1.2,1.67.12.36.96,1.32.12.36.24.24h3.59l-.48-.6v-.12l-.36-.36v-.12l-.36-.36v-.12l-.48-.48v-.12l-.36-.36v-.12l-.36-.36v-.12l-.48-.48v-.12l-.72-.84.72-.36h.24l.24-.24.48-.24.48-.6.12-.48.12-.12v-.24l.12-.12v-1.79l-.12-.12v-.36l-.36-.72-.36-.36v-.12l-.6-.48-.48-.24-.6-.12-.12-.12h-.84l-.12-.12h-4.78v.02h0ZM720.33,576.27h1.08l.12.12h.36l.24.12.48.48.12.24v1.08l-.12.24-.48.48-.48.12-.12.12h-1.2l-.12-.12v-2.75l.12-.12h0Z"/>
      <path id="path10" class="st5" d="M774.26,573.76l-.12.12-.84.12-.36.24-.48.12-.24.24-.72.36-1.08,1.08v.12l-.48.6-.36.72v.24l-.24.48v.36l-.12.12v2.27l.12.12v.36l.12.12.12.6.48.96.72.84v.12l.96.84,1.67.84.96.12.12.12h1.55l.12-.12.96-.12.12-.12h.24l.48-.24v-3.35l-.84.72-.48.24h-.24l-.12.12h-1.67l-.36-.24h-.24l-.24-.24h-.12l-.84-.84v-.12l-.24-.24-.12-.48-.12-.12v-.36l-.12-.12v-.96l.12-.12v-.48l.6-1.08.84-.72.48-.24h.24l.12-.12h.36l.12-.12h.72l.12.12h.48l.96.48.6.6.12-.24-.12-.12v-3.11h-.24l-.12-.12h-.24l-.48-.24h-.48l-.12-.12h-2.03Z"/>
      <path id="path11" class="st5" d="M707.05,574l-1.67.84-1.2,1.2-.72,1.32-.12.72-.12.12v.48l-.12.12v2.03l.12.12v.6l.12.12.12.6.24.36v.24l.24.24.36.72.96.96.72.36.24.24h.24l.36.24h.24l.48.24h.6l.12.12h1.79l.12-.12h.6l.12-.12.96-.24.72-.36.72-.6h.12l.84-.96.12-.36.24-.24.12-.48.12-.12v-.24l.12-.12v-.24l.12-.12v-.6l.12-.12v-1.67h-5.86v2.15h2.39l.12.24-.12.12v.24l-.24.48-.6.6-.48.24h-.36l-.12.12h-1.32l-.12-.12h-.36l-.48-.24-.36-.36h-.12l-.48-.6-.36-.72v-.24l-.12-.12v-.6l-.12-.12v-.84l.12-.12v-.6l.12-.12.12-.6.36-.48v-.12l.72-.72.96-.48h1.43l.12.12h.24l.48.24.72.72.36.72.6-.36h.24l.36-.24h.24l.6-.36h.24l.48-.24-.24-.48-.48-.6v-.12l-.72-.72h-.12l-.36-.36-.96-.48h-.24l-.48-.24h-.48l-.12-.12h-2.27l-.12.12-.96.12h0Z"/>
      <path id="path12" class="st5" d="M746.87,564.55l-.12.24v3.11l.24.48h4.3l.24-.36v-3.35l-.12-.24-.24-.12h-4.07l-.24.24s.01,0,.01,0Z"/>
      <path id="path13" class="st5" d="M754.41,562.04l-.12.12v6.1l.12.12h4.19l.24-.24v-5.98l-.48-.24h-3.59l-.12.12s-.24,0-.24,0Z"/>
      <path id="path14" class="st5" d="M761.94,560.13l-.24.12v.72l-.12.12v6.82l.12.12v.24l.12.12h4.07l.24-.24v-7.65l-.24-.36h-3.95Z"/>
      <path id="path15" class="st5" d="M769.35,554.87l-.48.24v13.03l.24.24h4.07l.24-.24v-12.91l-.12-.24-.24-.12h-3.71Z"/>
      <path id="path16" class="st5" d="M772.94,547.33l-.24-.48-.36-.36-.48-.24h-.24l-.12-.12h-.48l-.12.12h-.24l-.48.24-.6.84v.48l-.12.12.12.12v.6l-5.14,5.26-.24.12h-.48l-.12.12h-.6l-.12.12h-.36l-.72-.36-.24-.24-.84-.36-.24-.24-.6-.24-.24-.24-1.2-.6-.48-.48-.24-.96-.6-.6-.48-.12-.12-.12h-.72l-.12.12h-.24l-.24.12-.48.48-.24.48v1.32l-.72.72h-.12l-.96.96h-.12l-.96.96h-.12l-.96.96h-.12l-1.2,1.08-.24.12h-1.32l-.48.24-.48.48-.12.48-.12.12v.72l.12.12v.24l.12.24.6.6.48.12.12.12h.72l.12-.12.48-.12.36-.36.24-.48v-.84l.24-.24v-.12l1.43-1.43h.12l.96-.96h.12l2.63-2.39.24-.12h1.08l.48-.24h.48l.24.24.84.36.24.24.6.24.24.24.6.24.24.24.96.48.48.48v.36l.36.72.24.24.72.36h.72l.12-.12h.24l.24-.12.48-.48.24-.48v-1.32l.6-.6v-.12l4.54-4.54h.84l.12-.12h.36l.48-.24.36-.36v-.12l.24-.24v-.36l.12-.12v-.48l-.12-.12v-.24s.02-.02.02-.02Z"/>
      <path id="path17" class="st5" d="M773.78,538.72l-.36.36-.12.6.36.6.24.12h.72l.48-.6v-.6l-.12-.24-.36-.24h-.24l-.12-.12-.48.12Z"/>
      <path id="path18" class="st5" d="M770.31,538.72l-.36.36v.84l.12.24.36.24h.72l.24-.12.36-.72-.12-.12v-.36l-.36-.36h-.24l-.12-.12-.6.12Z"/>
      <path id="path19" class="st5" d="M766.84,538.72l-.36.36v.24l-.12.12v.24l.24.48.36.24h.72l.24-.12.24-.36v-.84l-.36-.36h-.36l-.12-.12s-.48.12-.48.12Z"/>
      <path id="path20" class="st5" d="M741.49,536.33v.12l-.36.36-.12.48-.12.12v.24l-.12.12v32.41l.48.6.24.12h.72v-3.59l.12-.12v-1.79l-.12-.12v-3.71l.12-.12v-1.79l-.12-.12v-16.02l.12-.12h34.56l.12.12v27.38h.84l.48-.36.12-.48.12-.12v-31.7l-.12-.12-.12-.96-.72-.96h-.12l-.6-.48h-.24l-.12-.12h-.48l-.12-.12h-32.65l-.12.12-.72.12-.48.24-.36.36h-.12,0ZM742.21,538.12l.24-.48.48-.48.24-.12h33l.24.12.48.48.12.24v3.83l-.12.12h-34.44l-.24-.24v-3.47h0Z"/>
    </g>
  </g>
  <g id="icons">
    <g id="Code-Block">
      <g id="Code-Block-text" class="st2">
        <g class="st2">
          <text class="st4" transform="translate(603.26 298.91)"><tspan x="0" y="0">Code-Block</tspan></text>
        </g>
      </g>
      <circle id="circle13-21" class="st3" cx="656.3" cy="237.95" r="36"/>
      <circle id="circle14-21" class="st6" cx="656.3" cy="237.95" r="36"/>
    </g>
    <g id="External-Link">
      <g id="External-Link-text" class="st2">
        <g class="st2">
          <text class="st4" transform="translate(334.84 298.91)"><tspan x="0" y="0">External-Link</tspan></text>
        </g>
      </g>
      <circle id="circle15-21" class="st3" cx="392.39" cy="237.95" r="36"/>
      <circle id="circle16-21" class="st6" cx="392.39" cy="237.95" r="36"/>
    </g>
    <g id="Interactive-Bar-Chart">
      <g id="Interactive-Bar-Chart-text" class="st2">
        <g class="st2">
          <text class="st4" transform="translate(68.94 298.91)"><tspan x="0" y="0">Interactive-Bar-Chart</tspan></text>
        </g>
      </g>
      <circle id="circle17-21" class="st3" cx="128.46" cy="237.94" r="36"/>
      <circle id="circle18-21" class="st6" cx="128.46" cy="237.94" r="36"/>
    </g>
    <g id="Interactive-Line-Chart">
      <g id="Interactive-Line-Chart-text" class="st2">
        <g class="st2">
          <text class="st4" transform="translate(592.26 164.37)"><tspan x="0" y="0">Interactive-Line-Chart</tspan></text>
        </g>
      </g>
      <circle id="circle19-21" class="st3" cx="656.31" cy="103.4" r="36"/>
      <circle id="circle20-21" class="st6" cx="656.31" cy="103.4" r="36"/>
    </g>
    <g id="Video">
      <g id="Video-text" class="st2">
        <g class="st2">
          <text class="st4" transform="translate(335.52 164.37)"><tspan x="0" y="0">Video</tspan></text>
        </g>
      </g>
      <circle id="circle21-21" class="st3" cx="392.39" cy="103.4" r="36"/>
      <circle id="circle22-21" class="st6" cx="392.39" cy="103.4" r="36"/>
    </g>
    <g id="Image">
      <g id="Image-text" class="st2">
        <g class="st2">
          <text class="st4" transform="translate(71.43 164.37)"><tspan x="0" y="0">Image</tspan></text>
        </g>
      </g>
      <circle id="circle23-21" class="st3" cx="128.46" cy="103.39" r="36"/>
      <circle id="circle24-21" class="st6" cx="128.46" cy="103.39" r="36"/>
    </g>
  </g>
</svg>