<?xml version="1.0" encoding="UTF-8"?>
<svg xmlns="http://www.w3.org/2000/svg" viewBox="0 0 1401 1080">
  <defs>
    <style>
      .cls-1 {
        font-size: 60px;
      }

      .cls-2 {
        fill: #000f42;
        font-size: 41.37px;
      }

      .cls-2, .cls-3 {
        isolation: isolate;
      }

      .cls-2, .cls-4 {
        font-family: Arial-BoldMT, Arial;
        font-weight: 700;
      }

      .cls-5 {
        font-size: 21px;
      }

      .cls-6, .cls-3 {
        fill: #fff;
      }

      .cls-7 {
        letter-spacing: -.07em;
      }

      .cls-8 {
        letter-spacing: -.06em;
      }

      .cls-9, .cls-10 {
        font-family: ArialMT, Arial;
      }

      .cls-3 {
        opacity: .75;
      }

      .cls-11 {
        letter-spacing: -.02em;
      }

      .cls-12 {
        font-size: 36px;
      }

      .cls-13, .cls-4, .cls-10 {
        font-size: 40px;
      }

      .cls-14 {
        fill: #ccc;
      }

      .cls-15 {
        fill-rule: evenodd;
      }
    </style>
  </defs>
  <g id="Layer_6" data-name="Layer 6">
    <rect class="cls-14" y="3" width="1399" height="1077"/>
  </g>
  <g id="background">
    <g id="logo">
      <path id="path1" class="cls-15" d="M1377.67,1045.7l-.41.81-.2,1.01-.41.61-.2,1.01-.81,1.62-.2,1.01-.41.61-.2,1.01-.81,1.62-.2,1.01-.41.61-.2,1.01-.41.61-.2,1.01-.81,1.62-.2,1.01-.81,1.62-.2,1.01-.41.61h5.26l.61-1.22.41-1.62.41-.61h7.08l.41.41v.41l.41.61v.41l.2.2v.41l.2.2.2.81h5.26l-.41-.81-.2-1.01-.41-.61v-.41l-.41-.61-.2-1.01-.41-.61-.2-1.01-.41-.61-.2-1.01-.81-1.62-.2-1.01-.81-1.62v-.41l-.61-1.22-.2-1.01-.41-.61-.2-1.01-.81-1.62v-.41l-.2-.2-.2-.81-.2-.2h-5.46.03,0ZM1380.51,1051.35l.2.2v.41l.2.2.41,1.62.41.61v.41l.2.2v.41l.2.2v.41l.2.2.41,1.62-.2.2h-4.24l-.2-.41.2-.2.41-1.62.41-.61v-.41l.2-.2v-.41l.2-.2v-.41l.2-.2.41-1.62.41-.41h-.02Z"/>
      <path id="path2-6" class="cls-15" d="M1357.06,1045.7v4.04h4.04l.2.2v15.16h5.05v-15.16l.2-.2h4.04v-4.04h-13.54Z"/>
      <path id="path3-1" class="cls-15" d="M1344.33,1045.7v.41l-.41.61-.2,1.01-.81,1.62-.2,1.01-.41.61-.2,1.01-.81,1.62-.2,1.01-.41.61-.2,1.01-.41.61-.2,1.01-.81,1.62-.2,1.01-.41.61-.2,1.01-.41.61v.41l-.41.61v.41l-.2.2-.2.81h5.26v-.41l.61-1.22.2-1.01.61-.81h6.88l.61.81v.41l.41.61.41,1.62h5.26v-.41l-.41-.61v-.41l-.41-.61-.2-1.01-.81-1.62-.2-1.01-.41-.61-.2-1.01-.81-1.62-.2-1.01-.41-.61-.2-1.01-.41-.61-.2-1.01-.81-1.62-.2-1.01-.41-.61v-.41l-.61-1.22v-.41l-.41-.61v-.41h-5.66.03,0ZM1347.15,1051.35l.41.61v.41l.2.2.41,1.62.41.61v.41l.2.2v.41l.2.2v.41l.2.2v.41l.41.81-.2.2h-4.44l-.2-.2.2-.2v-.41l.2-.2v-.41l.2-.2.41-1.62.41-.61v-.41l.2-.2.41-1.62.41-.61h-.02Z"/>
      <path id="path4-1" class="cls-15" d="M1319.06,1045.7v19.4h9.3l.2-.2,1.22-.2,1.62-.81,1.22-1.01h.2l1.62-1.83,1.01-1.83v-.41l.41-.81v-.61l.2-.2v-1.42l.2-.2v-.41l-.2-.2v-1.62l-.2-.2-.41-1.62-1.01-1.83-.81-.81v-.2l-1.62-1.42-2.82-1.42h-.81l-.2-.2h-9.09v.07h-.02ZM1324.12,1049.74h2.03l.2.2h.81l1.62.81,1.62,1.83.2.81.2.2v.61l.2.2v2.03l-.2.2v.61l-.2.2v.41l-.41.81-1.62,1.62-.81.41h-.41l-.2.2h-.61l-.2.2h-2.23l-.2-.2v-10.92l.2-.2v-.03h0Z"/>
      <path id="path5-5" class="cls-15" d="M1367.36,1020.64v19.6h4.85v-19.6h-4.85Z"/>
      <path id="path6-6" class="cls-15" d="M1345.55,1020.64v19.6h4.85v-7.88l.2-.2h7.27l.2.2v7.88h4.85v-19.6h-4.85v7.47l-.2.2h-7.27l-.2-.2v-7.47h-4.85Z"/>
      <path id="path7" class="cls-15" d="M1327.77,1020.64v19.6h4.85v-6.27l.2-.2h4.04l.2-.2h1.01l.2-.2,1.01-.2.81-.61h.2l1.22-1.22.81-1.62v-.61l.2-.2v-3.23l-.2-.2-.2-1.22-.81-1.42-1.01-1.01-1.62-.81h-.61l-.2-.2h-1.62l-.2-.2h-8.28v.03h0ZM1332.62,1024.88l.2-.2h2.62l.2.2.81.2.61.61.2.81.2.2v1.01l-.2.2-.2.81-.61.61-.81.41h-2.82l-.2-.2v-4.65h0v-.02Z"/>
      <path id="path8" class="cls-15" d="M1312.41,1020.64l-.81,1.62-.2,1.01-.41.61v.41l-.61,1.22-.2,1.01-.41.61v.41l-.41.61-.2,1.01-.81,1.62-.2,1.01-.41.61-.2,1.01-.81,1.62-.2,1.01-.41.61v.41l-.61,1.22v.41l-.61,1.22v.41h5.26v-.41l.2-.2v-.41l.2-.2.41-1.62.41-.61h7.27l.2.2.41,1.62.41.61.2,1.01h5.26l-.2-.81-.2-.2v-.41l-.41-.61-.2-1.01-.81-1.62-.2-1.01-.81-1.62-.2-1.01-.41-.61-.2-1.01-.41-.61-.2-1.01-.41-.61v-.41l-.41-.61-.2-1.01-.41-.61-.2-1.01-.81-1.62v-.41l-.61-1.22v-.41l-.2-.2h-5.26.05,0ZM1315.03,1026.5l.41.61v.41l.2.2v.41l.2.2.41,1.62.41.61v.41l.2.2v.41l.2.2v.41l.41.81-.2.2h-4.44l-.2-.2.41-.81v-.41l.2-.2v-.41l.2-.2v-.41l.2-.2.41-1.62.41-.61.2-1.01.41-.61h-.02Z"/>
      <path id="path9" class="cls-15" d="M1288.15,1020.64v19.6h4.85v-7.27l.2-.2.41.81,2.03,2.82.2.61,1.62,2.23.2.61.41.41h6.07l-.81-1.01v-.2l-.61-.61v-.2l-.61-.61v-.2l-.81-.81v-.2l-.61-.61v-.2l-.61-.61v-.2l-.81-.81v-.2l-1.22-1.42,1.22-.61h.41l.41-.41.81-.41.81-1.01.2-.81.2-.2v-.41l.2-.2v-3.03l-.2-.2v-.61l-.61-1.22-.61-.61v-.2l-1.01-.81-.81-.41-1.01-.2-.2-.2h-1.42l-.2-.2h-8.08v.03h0ZM1293.21,1024.47h1.83l.2.2h.61l.41.2.81.81.2.41v1.83l-.2.41-.81.81-.81.2-.2.2h-2.03l-.2-.2v-4.65l.2-.2h0v-.02Z"/>
      <path id="path10" class="cls-15" d="M1384.35,1020.23l-.2.2-1.42.2-.61.41-.81.2-.41.41-1.22.61-1.83,1.83v.2l-.81,1.01-.61,1.22v.41l-.41.81v.61l-.2.2v3.84l.2.2v.61l.2.2.2,1.01.81,1.62,1.22,1.42v.2l1.62,1.42,2.82,1.42,1.62.2.2.2h2.62l.2-.2,1.62-.2.2-.2h.41l.81-.41v-5.66l-1.42,1.22-.81.41h-.41l-.2.2h-2.82l-.61-.41h-.41l-.41-.41h-.2l-1.42-1.42v-.2l-.41-.41-.2-.81-.2-.2v-.61l-.2-.2v-1.62l.2-.2v-.81l1.01-1.83,1.42-1.22.81-.41h.41l.2-.2h.61l.2-.2h1.22l.2.2h.81l1.62.81,1.01,1.01.2-.41-.2-.2v-5.26h-.41l-.2-.2h-.41l-.81-.41h-.81l-.2-.2h-3.43v-.02Z"/>
      <path id="path11" class="cls-15" d="M1270.76,1020.64l-2.82,1.42-2.03,2.03-1.22,2.23-.2,1.22-.2.2v.81l-.2.2v3.43l.2.2v1.01l.2.2.2,1.01.41.61v.41l.41.41.61,1.22,1.62,1.62,1.22.61.41.41h.41l.61.41h.41l.81.41h1.01l.2.2h3.03l.2-.2h1.01l.2-.2,1.62-.41,1.22-.61,1.22-1.01h.2l1.42-1.62.2-.61.41-.41.2-.81.2-.2v-.41l.2-.2v-.41l.2-.2v-1.01l.2-.2v-2.82h-9.9v3.63h4.04l.2.41-.2.2v.41l-.41.81-1.01,1.01-.81.41h-.61l-.2.2h-2.23l-.2-.2h-.61l-.81-.41-.61-.61h-.2l-.81-1.01-.61-1.22v-.41l-.2-.2v-1.01l-.2-.2v-1.42l.2-.2v-1.01l.2-.2.2-1.01.61-.81v-.2l1.22-1.22,1.62-.81h2.42l.2.2h.41l.81.41,1.22,1.22.61,1.22,1.01-.61h.41l.61-.41h.41l1.01-.61h.41l.81-.41-.41-.81-.81-1.01v-.2l-1.22-1.22h-.2l-.61-.61-1.62-.81h-.41l-.81-.41h-.81l-.2-.2h-3.84l-.2.2-1.62.2h0l-.02.02Z"/>
      <path id="path12" class="cls-15" d="M1338.06,1004.67l-.2.41v5.26l.41.81h7.27l.41-.61v-5.66l-.2-.41-.41-.2h-6.88l-.41.41s.02,0,.02,0Z"/>
      <path id="path13" class="cls-15" d="M1350.8,1000.43l-.2.2v10.31l.2.2h7.08l.41-.41v-10.11l-.81-.41h-6.07l-.2.2s-.41,0-.41,0Z"/>
      <path id="path14" class="cls-15" d="M1363.53,997.2l-.41.2v1.22l-.2.2v11.53l.2.2v.41l.2.2h6.88l.41-.41v-12.93l-.41-.61h-6.68v-.02Z"/>
      <path id="path15" class="cls-15" d="M1376.05,988.31l-.81.41v22.02l.41.41h6.88l.41-.41v-21.82l-.2-.41-.41-.2h-6.27Z"/>
      <path id="path16" class="cls-15" d="M1382.12,975.57l-.41-.81-.61-.61-.81-.41h-.41l-.2-.2h-.81l-.2.2h-.41l-.81.41-1.01,1.42v.81l-.2.2.2.2v1.01l-8.69,8.89-.41.2h-.81l-.2.2h-1.01l-.2.2h-.61l-1.22-.61-.41-.41-1.42-.61-.41-.41-1.01-.41-.41-.41-2.03-1.01-.81-.81-.41-1.62-1.01-1.01-.81-.2-.2-.2h-1.22l-.2.2h-.41l-.41.2-.81.81-.41.81v2.23l-1.22,1.22h-.2l-1.62,1.62h-.2l-1.62,1.62h-.2l-1.62,1.62h-.2l-2.03,1.83-.41.2h-2.23l-.81.41-.81.81-.2.81-.2.2v1.22l.2.2v.41l.2.41,1.01,1.01.81.2.2.2h1.22l.2-.2.81-.2.61-.61.41-.81v-1.42l.41-.41v-.2l2.42-2.42h.2l1.62-1.62h.2l4.44-4.04.41-.2h1.83l.81-.41h.81l.41.41,1.42.61.41.41,1.01.41.41.41,1.01.41.41.41,1.62.81.81.81v.61l.61,1.22.41.41,1.22.61h1.22l.2-.2h.41l.41-.2.81-.81.41-.81v-2.23l1.01-1.01v-.2l7.67-7.67h1.42l.2-.2h.61l.81-.41.61-.61v-.2l.41-.41v-.61l.2-.2v-.81l-.2-.2v-.41s.03-.03.03-.03Z"/>
      <path id="path17" class="cls-15" d="M1383.54,961.01l-.61.61-.2,1.01.61,1.01.41.2h1.22l.81-1.01v-1.01l-.2-.41-.61-.41h-.41l-.2-.2-.81.2Z"/>
      <path id="path18" class="cls-15" d="M1377.67,961.01l-.61.61v1.42l.2.41.61.41h1.22l.41-.2.61-1.22-.2-.2v-.61l-.61-.61h-.41l-.2-.2-1.01.2Z"/>
      <path id="path19" class="cls-15" d="M1371.81,961.01l-.61.61v.41l-.2.2v.41l.41.81.61.41h1.22l.41-.2.41-.61v-1.42l-.61-.61h-.61l-.2-.2-.81.2Z"/>
      <path id="path20" class="cls-15" d="M1328.97,956.98v.2l-.61.61-.2.81-.2.2v.41l-.2.2v54.77l.81,1.01.41.2h1.22v-6.07l.2-.2v-3.03l-.2-.2v-6.27l.2-.2v-3.03l-.2-.2v-27.07l.2-.2h58.41l.2.2v46.27h1.42l.81-.61.2-.81.2-.2v-53.57l-.2-.2-.2-1.62-1.22-1.62h-.2l-1.01-.81h-.41l-.2-.2h-.81l-.2-.2h-55.18l-.2.2-1.22.2-.81.41-.61.61h-.2l.02.02ZM1330.18,960l.41-.81.81-.81.41-.2h55.77l.41.2.81.81.2.41v6.47l-.2.2h-58.2l-.41-.41v-5.86h0Z"/>
    </g>
    <g id="title">
      <rect id="title-text-background" class="cls-3" x="1.3" y=".58" width="457.9" height="60.84"/>
      <text id="title-text" class="cls-2" transform="translate(75.18 45.89)"><tspan class="cls-7" x="0" y="0">T</tspan><tspan x="22.2" y="0">able Scene</tspan></text>
    </g>
    <g id="header">
      <rect class="cls-6" x="35" y="286" width="1340" height="96"/>
      <rect x="35" y="286" width="1340" height="4"/>
      <rect x="35.34" y="378.64" width="1340" height="4"/>
      <text class="cls-4" transform="translate(74.02 352.74)"><tspan x="0" y="0" xml:space="preserve">Metric                                                          </tspan><tspan class="cls-8" x="762.38" y="0">T</tspan><tspan x="784.61" y="0">rend</tspan></text>
    </g>
  </g>
  <g id="icons">
    <g id="Code-Block">
      <rect class="cls-6" x="35.17" y="385.6" width="1340" height="96"/>
      <rect x="35.51" y="480.23" width="1340" height="2"/>
      <text class="cls-10" transform="translate(74.19 452.34)"><tspan x="0" y="0" xml:space="preserve">Code Block                                                   +++                                                   </tspan></text>
      <text/>
    </g>
    <g id="Image">
      <rect class="cls-6" x="34.09" y="484.38" width="1340" height="96"/>
      <rect x="34.43" y="579.02" width="1340" height="2"/>
      <text class="cls-9" transform="translate(73.11 551.13)"><tspan class="cls-13" x="0" y="0" xml:space="preserve">Image                                    </tspan><tspan class="cls-12" x="511.25" y="0" xml:space="preserve">      </tspan><tspan class="cls-13" x="571.26" y="0" xml:space="preserve">             </tspan><tspan class="cls-5" x="715.73" y="0"> </tspan><tspan class="cls-1" x="721.57" y="0" xml:space="preserve">  </tspan><tspan class="cls-13" x="754.91" y="0" xml:space="preserve">  </tspan><tspan class="cls-1" x="777.14" y="0">---</tspan></text>
    </g>
    <g id="Interactive-Bar-Chart">
      <rect class="cls-6" x="33.66" y="582.1" width="1340" height="96"/>
      <rect x="34" y="676.74" width="1340" height="2"/>
      <text class="cls-10" transform="translate(72.68 648.85)"><tspan x="0" y="0" xml:space="preserve">Interactive Bar Chart                                     +                                                   </tspan></text>
      <text/>
    </g>
    <g id="Interactive-Line-Chart">
      <rect class="cls-6" x="33.95" y="679.3" width="1340" height="96"/>
      <rect x="34.29" y="773.94" width="1340" height="2"/>
      <text class="cls-9" transform="translate(72.97 746.04)"><tspan class="cls-13" x="0" y="0" xml:space="preserve">Interactive Line Chart                                    </tspan><tspan class="cls-1" x="780.27" y="0">--</tspan><tspan class="cls-13" x="820.23" y="0" xml:space="preserve">                                                   </tspan></text>
    </g>
    <g id="Video">
      <rect class="cls-6" x="33.66" y="776.37" width="1340" height="96"/>
      <rect x="34" y="871" width="1340" height="2"/>
      <text class="cls-10" transform="translate(72.68 843.11)"><tspan class="cls-11" x="0" y="0">V</tspan><tspan x="25.96" y="0" xml:space="preserve">ideo                                                             ++                                                   </tspan></text>
    </g>
  </g>
</svg>