<?xml version="1.0" encoding="UTF-8" standalone="no"?>
<svg
   width="11in"
   height="8.5in"
   viewBox="0 0 792 612"
   version="1.1"
   id="svg25"
   sodipodi:docname="GraphicData Example SVG format copy.svg"
   inkscape:version="1.4 (e7c3feb1, 2024-10-09)"
   xmlns:inkscape="http://www.inkscape.org/namespaces/inkscape"
   xmlns:sodipodi="http://sodipodi.sourceforge.net/DTD/sodipodi-0.dtd"
   xmlns="http://www.w3.org/2000/svg"
   xmlns:svg="http://www.w3.org/2000/svg">
  <sodipodi:namedview
     id="namedview25"
     pagecolor="#ffffff"
     bordercolor="#666666"
     borderopacity="1.0"
     inkscape:showpageshadow="2"
     inkscape:pageopacity="0.0"
     inkscape:pagecheckerboard="0"
     inkscape:deskcolor="#d1d1d1"
     inkscape:document-units="in"
     inkscape:zoom="0.43156621"
     inkscape:cx="528.30827"
     inkscape:cy="408.97548"
     inkscape:window-width="1336"
     inkscape:window-height="1186"
     inkscape:window-x="152"
     inkscape:window-y="225"
     inkscape:window-maximized="0"
     inkscape:current-layer="background" />
  <defs
     id="defs2">
    <style
       id="style1">
      .cls-1 {
        fill: url(#linear-gradient);
      }

      .cls-2, .cls-3, .cls-6, .cls-8 {
        fill: #fff;
      }

      .cls-3, .cls-6 {
        isolation: isolate;
      }

      .cls-3 {
        opacity: 0.75;
      }

      .cls-4 {
        font-size: 24.48px;
        fill: #000f42;
      }

      .cls-4, .cls-8 {
        font-family: Arial-BoldMT, Arial;
        font-weight: 700;
      }

      .cls-5 {
        letter-spacing: -0.02em;
      }

      .cls-6 {
        opacity: 0.25;
      }

      .cls-7 {
        fill: none;
        stroke: #fff;
        stroke-miterlimit: 10;
        stroke-width: 1.5px;
      }

      .cls-8 {
        font-size: 18px;
      }

      .cls-9 {
        letter-spacing: -0.07em;
      }
    </style>
    <linearGradient
       id="linear-gradient"
       x1="395.89"
       y1="805.28"
       x2="395.89"
       y2="4.55"
       gradientTransform="matrix(1, 0, 0, -1, 0, 614)"
       gradientUnits="userSpaceOnUse">
      <stop
         offset="0"
         stop-color="#6aa8c4"
         id="stop1" />
      <stop
         offset="1"
         stop-color="#aed4e5"
         id="stop2" />
    </linearGradient>
  </defs>
  <g
     id="mobile"
     transform="translate(-8.4995685,-49.069562)">
    <g
       id="g1"
       data-name="icon12"
       inkscape:label="icon12"
       transform="translate(3.3640808,132.26132)">
      <text
         id="nine-0-3"
         class="cls-8"
         transform="translate(601.28,472.02)"
         inkscape:label="text"
         style="font-weight:700;font-size:18px;font-family:Arial-BoldMT, Arial;fill:#ffffff">Example Twelve</text>
      <circle
         class="cls-6"
         cx="660.29999"
         cy="411.04001"
         r="36"
         transform="rotate(-80.78,660.33005,411.0285)"
         id="circle7-1-9"
         style="opacity:0.25;isolation:isolate;fill:#ffffff" />
      <circle
         class="cls-7"
         cx="660.29999"
         cy="411.04001"
         r="36"
         transform="rotate(-80.78,660.33005,411.0285)"
         id="circle8-9-8"
         style="fill:none;stroke:#ffffff;stroke-width:1.5px;stroke-miterlimit:10" />
    </g>
    <g
       id="H_eight-8-6"
       data-name="H eight"
       inkscape:label="icon11"
       transform="translate(3.3640808,139.76132)">
      <text
         id="text26-5"
         class="cls-8"
         inkscape:label="text"
         style="font-weight:700;font-size:18px;font-family:Arial-BoldMT, Arial;fill:#ffffff"
         x="334.38"
         y="464.51999">Example Eleven</text>
      <circle
         class="cls-6"
         cx="-334.83121"
         cy="455.95078"
         r="36"
         transform="rotate(-80.78)"
         id="circle26-7"
         style="opacity:0.25;isolation:isolate;fill:#ffffff" />
      <circle
         class="cls-7"
         cx="-334.83121"
         cy="455.95078"
         r="36"
         transform="rotate(-80.78)"
         id="circle27-6"
         style="fill:none;stroke:#ffffff;stroke-width:1.5px;stroke-miterlimit:10" />
    </g>
    <g
       id="G_seven-6-2"
       data-name="G seven"
       inkscape:label="icon10"
       transform="translate(3.3640808,139.76132)"
       style="display:inline">
      <text
         id="text3-7"
         class="cls-8"
         inkscape:label="text"
         style="font-weight:700;font-size:18px;font-family:Arial-BoldMT, Arial;fill:#ffffff"
         x="66.440002"
         y="464.51999">Example Ten</text>
      <circle
         class="cls-6"
         cx="-377.10938"
         cy="195.43379"
         r="36"
         transform="rotate(-80.78)"
         id="circle4-0"
         style="opacity:0.25;isolation:isolate;fill:#ffffff" />
      <circle
         class="cls-7"
         cx="-377.10938"
         cy="195.43379"
         r="36"
         transform="rotate(-80.78)"
         id="circle5-3"
         style="fill:none;stroke:#ffffff;stroke-width:1.5px;stroke-miterlimit:10" />
    </g>
    <g
       id="I_nine-9"
       data-name="I nine"
       inkscape:label="icon9"
       style="display:inline">
      <text
         id="nine-9"
         class="cls-8"
         transform="translate(601.28,472.02)"
         inkscape:label="text"
         style="font-weight:700;font-size:18px;font-family:Arial-BoldMT, Arial;fill:#ffffff">Example Nine</text>
      <circle
         class="cls-6"
         cx="660.29999"
         cy="411.04001"
         r="36"
         transform="rotate(-80.78,660.33005,411.0285)"
         id="circle7-9"
         style="opacity:0.25;isolation:isolate;fill:#ffffff" />
      <circle
         class="cls-7"
         cx="660.29999"
         cy="411.04001"
         r="36"
         transform="rotate(-80.78,660.33005,411.0285)"
         id="circle8-1"
         style="fill:none;stroke:#ffffff;stroke-width:1.5px;stroke-miterlimit:10" />
    </g>
    <g
       id="H_eight-7"
       data-name="H eight"
       inkscape:label="icon8">
      <text
         id="eight-2"
         class="cls-8"
         inkscape:label="text"
         transform="translate(334.38,472.02)"
         style="font-weight:700;font-size:18px;font-family:Arial-BoldMT, Arial;fill:#ffffff">Example Eight</text>
      <circle
         class="cls-6"
         cx="396.39001"
         cy="411.04001"
         r="36"
         transform="rotate(-80.78,396.41269,411.03761)"
         id="circle9-3"
         style="opacity:0.25;isolation:isolate;fill:#ffffff" />
      <circle
         class="cls-7"
         cx="396.39001"
         cy="411.04001"
         r="36"
         transform="rotate(-80.78,396.41269,411.03761)"
         id="circle10-6"
         style="fill:none;stroke:#ffffff;stroke-width:1.5px;stroke-miterlimit:10" />
    </g>
    <g
       id="G_seven-5"
       data-name="G seven"
       inkscape:label="icon7">
      <text
         id="seven-5"
         class="cls-8"
         inkscape:label="text"
         transform="translate(66.44,472.02)"
         style="font-weight:700;font-size:18px;font-family:Arial-BoldMT, Arial;fill:#ffffff">Example Seven</text>
      <circle
         class="cls-6"
         cx="132.48"
         cy="411.04001"
         r="36"
         transform="rotate(-80.78,132.48945,411.04173)"
         id="circle11-8"
         style="opacity:0.25;isolation:isolate;fill:#ffffff" />
      <circle
         class="cls-7"
         cx="132.48"
         cy="411.04001"
         r="36"
         transform="rotate(-80.78,132.48945,411.04173)"
         id="circle12-1"
         style="fill:none;stroke:#ffffff;stroke-width:1.5px;stroke-miterlimit:10" />
    </g>
    <g
       id="F_six-4"
       data-name="F six"
       inkscape:label="icon6">
      <text
         id="six-7"
         class="cls-8"
         inkscape:label="text"
         transform="translate(607.28,336.09)"
         style="font-weight:700;font-size:18px;font-family:Arial-BoldMT, Arial;fill:#ffffff">Example Six</text>
      <circle
         class="cls-6"
         cx="660.29999"
         cy="275.10999"
         r="36"
         transform="rotate(-80.78,660.32344,275.10689)"
         id="circle13-1"
         style="opacity:0.25;isolation:isolate;fill:#ffffff" />
      <circle
         class="cls-7"
         cx="660.29999"
         cy="275.10999"
         r="36"
         transform="rotate(-80.78,660.32344,275.10689)"
         id="circle14-3"
         style="fill:none;stroke:#ffffff;stroke-width:1.5px;stroke-miterlimit:10" />
    </g>
    <g
       id="E_five-8"
       data-name="E five"
       inkscape:label="icon5">
      <text
         id="five-4"
         class="cls-8"
         inkscape:label="text"
         transform="translate(338.86,336.09)"
         style="font-weight:700;font-size:18px;font-family:Arial-BoldMT, Arial;fill:#ffffff">Example Five</text>
      <circle
         class="cls-6"
         cx="396.39001"
         cy="275.10999"
         r="36"
         transform="rotate(-80.78,396.41108,275.11013)"
         id="circle15-8"
         style="opacity:0.25;isolation:isolate;fill:#ffffff" />
      <circle
         class="cls-7"
         cx="396.39001"
         cy="275.10999"
         r="36"
         transform="rotate(-80.78,396.41108,275.11013)"
         id="circle16-0"
         style="fill:none;stroke:#ffffff;stroke-width:1.5px;stroke-miterlimit:10" />
    </g>
    <g
       id="D_four-4"
       data-name="D four"
       inkscape:label="icon4">
      <text
         id="four-6"
         class="cls-8"
         inkscape:label="text"
         transform="translate(72.96,336.09)"
         style="font-weight:700;font-size:18px;font-family:Arial-BoldMT, Arial;fill:#ffffff">Example Four</text>
      <circle
         class="cls-6"
         cx="132.48"
         cy="275.10999"
         r="36"
         transform="rotate(-80.78,132.48784,275.11424)"
         id="circle17-0"
         style="opacity:0.25;isolation:isolate;fill:#ffffff" />
      <circle
         class="cls-7"
         cx="132.48"
         cy="275.10999"
         r="36"
         transform="rotate(-80.78,132.48784,275.11424)"
         id="circle18-3"
         style="fill:none;stroke:#ffffff;stroke-width:1.5px;stroke-miterlimit:10" />
    </g>
    <g
       id="C_three-2"
       data-name="C three"
       inkscape:label="icon3">
      <text
         id="three-6"
         class="cls-8"
         inkscape:label="text"
         transform="translate(596.28,201.55)"
         style="font-weight:700;font-size:18px;font-family:Arial-BoldMT, Arial;fill:#ffffff">Example Three</text>
      <circle
         class="cls-6"
         cx="660.29999"
         cy="140.57001"
         r="36"
         transform="rotate(-80.78,660.32356,140.55868)"
         id="circle19-9"
         style="opacity:0.25;isolation:isolate;fill:#ffffff" />
      <circle
         class="cls-7"
         cx="660.29999"
         cy="140.57001"
         r="36"
         transform="rotate(-80.78,660.32356,140.55868)"
         id="circle20-4"
         style="fill:none;stroke:#ffffff;stroke-width:1.5px;stroke-miterlimit:10" />
    </g>
    <g
       id="B_two-1"
       data-name="B two"
       inkscape:label="icon2">
      <text
         id="two-3"
         class="cls-8"
         inkscape:label="text"
         transform="translate(339.54,201.55)"
         style="font-weight:700;font-size:18px;font-family:Arial-BoldMT, Arial;fill:#ffffff">Example <tspan
   class="cls-9"
   x="79.040001"
   y="0"
   id="tspan24-7">T</tspan><tspan
   x="88.699997"
   y="0"
   id="tspan25-8">wo</tspan></text>
      <circle
         class="cls-6"
         cx="396.39001"
         cy="140.57001"
         r="36"
         transform="rotate(-80.78,396.4062,140.5678)"
         id="circle21-8"
         style="opacity:0.25;isolation:isolate;fill:#ffffff" />
      <circle
         class="cls-7"
         cx="396.39001"
         cy="140.57001"
         r="36"
         transform="rotate(-80.78,396.4062,140.5678)"
         id="circle22-3"
         style="fill:none;stroke:#ffffff;stroke-width:1.5px;stroke-miterlimit:10" />
    </g>
    <g
       id="A_one-8"
       data-name="A one"
       style="display:inline"
       inkscape:label="icon1">
      <text
         id="one-1"
         class="cls-8"
         style="font-weight:700;font-size:18px;font-family:Arial-BoldMT, Arial;display:inline;fill:#ffffff"
         inkscape:label="text"
         transform="translate(75.45,201.55)">Example One</text>
      <circle
         class="cls-6"
         cx="132.48"
         cy="140.57001"
         r="36"
         transform="rotate(-80.78,132.48296,140.57191)"
         id="circle23-5"
         style="opacity:0.25;isolation:isolate;fill:#ffffff" />
      <circle
         class="cls-7"
         cx="132.48"
         cy="140.57001"
         r="36"
         transform="rotate(-80.78,132.48296,140.57191)"
         id="circle24-3"
         style="fill:none;stroke:#ffffff;stroke-width:1.5px;stroke-miterlimit:10" />
    </g>
  </g>
  <g
     id="background">
    <rect
       id="_Path_"
       data-name=" Path "
       class="cls-1"
       x="-0.11"
       y="-0.5"
       width="792"
       height="612" />
    <g
       id="title"
       transform="translate(1.69043,-22.107422)">
      <rect
         class="cls-3"
         x="-0.11"
         y="35.5"
         width="241.2"
         height="36"
         id="rect6" />
      <text
         id="Example"
         class="cls-4"
         transform="translate(43.61,62.31)">Example <tspan
   class="cls-5"
   x="107.49"
   y="0"
   id="tspan6">T</tspan><tspan
   x="122.01"
   y="0"
   id="tspan7">itle</tspan></text>
    </g>
    <g
       id="logo"
       transform="matrix(0.11958036,0,0,0.11958037,702.20999,-2.0003916)"
       style="fill:#ffffff">
      <path
         d="m 616,532 -2,4 -1,5 -2,3 -1,5 -4,8 -1,5 -2,3 -1,5 -4,8 -1,5 -2,3 -1,5 -2,3 -1,5 -4,8 -1,5 -4,8 -1,5 -2,3 h 26 l 3,-6 2,-8 2,-3 h 35 l 2,2 v 2 l 2,3 v 2 l 1,1 v 2 l 1,1 1,4 h 26 l -2,-4 -1,-5 -2,-3 v -2 l -2,-3 -1,-5 -2,-3 -1,-5 -2,-3 -1,-5 -4,-8 -1,-5 -4,-8 v -2 l -3,-6 -1,-5 -2,-3 -1,-5 -4,-8 v -2 l -1,-1 -1,-4 -1,-1 z m 14,28 1,1 v 2 l 1,1 2,8 2,3 v 2 l 1,1 v 2 l 1,1 v 2 l 1,1 2,8 -1,1 h -21 l -1,-2 1,-1 2,-8 2,-3 v -2 l 1,-1 v -2 l 1,-1 v -2 l 1,-1 2,-8 z"
         fill="#000000"
         fill-rule="evenodd"
         id="path1"
         style="fill:#ffffff" />
      <path
         d="m 514,532 v 20 h 20 l 1,1 v 75 h 25 v -75 l 1,-1 h 20 v -20 z"
         fill="#000000"
         fill-rule="evenodd"
         id="path2-6"
         style="fill:#ffffff" />
      <path
         d="m 451,532 v 2 l -2,3 -1,5 -4,8 -1,5 -2,3 -1,5 -4,8 -1,5 -2,3 -1,5 -2,3 -1,5 -4,8 -1,5 -2,3 -1,5 -2,3 v 2 l -2,3 v 2 l -1,1 -1,4 h 26 v -2 l 3,-6 1,-5 3,-4 h 34 l 3,4 v 2 l 2,3 2,8 h 26 v -2 l -2,-3 v -2 l -2,-3 -1,-5 -4,-8 -1,-5 -2,-3 -1,-5 -4,-8 -1,-5 -2,-3 -1,-5 -2,-3 -1,-5 -4,-8 -1,-5 -2,-3 v -2 l -3,-6 v -2 l -2,-3 v -2 z m 14,28 2,3 v 2 l 1,1 2,8 2,3 v 2 l 1,1 v 2 l 1,1 v 2 l 1,1 v 2 l 2,4 -1,1 h -22 l -1,-1 1,-1 v -2 l 1,-1 v -2 l 1,-1 2,-8 2,-3 v -2 l 1,-1 2,-8 z"
         fill="#000000"
         fill-rule="evenodd"
         id="path3-1"
         style="fill:#ffffff" />
      <path
         d="m 326,532 v 96 h 46 l 1,-1 6,-1 8,-4 6,-5 h 1 l 8,-9 5,-9 v -2 l 2,-4 v -3 l 1,-1 v -7 l 1,-1 v -2 l -1,-1 v -8 l -1,-1 -2,-8 -5,-9 -4,-4 v -1 l -8,-7 -14,-7 h -4 l -1,-1 z m 25,20 h 10 l 1,1 h 4 l 8,4 8,9 1,4 1,1 v 3 l 1,1 v 10 l -1,1 v 3 l -1,1 v 2 l -2,4 -8,8 -4,2 h -2 l -1,1 h -3 l -1,1 h -11 l -1,-1 v -54 z"
         fill="#000000"
         fill-rule="evenodd"
         id="path4-1"
         style="fill:#ffffff" />
      <path
         d="m 565,408 v 97 h 24 v -97 z"
         fill="#000000"
         fill-rule="evenodd"
         id="path5-5"
         style="fill:#ffffff" />
      <path
         d="m 457,408 v 97 h 24 v -39 l 1,-1 h 36 l 1,1 v 39 h 24 v -97 h -24 v 37 l -1,1 h -36 l -1,-1 v -37 z"
         fill="#000000"
         fill-rule="evenodd"
         id="path6-6"
         style="fill:#ffffff" />
      <path
         d="m 369,408 v 97 h 24 v -31 l 1,-1 h 20 l 1,-1 h 5 l 1,-1 5,-1 4,-3 h 1 l 6,-6 4,-8 v -3 l 1,-1 v -16 l -1,-1 -1,-6 -4,-7 -5,-5 -8,-4 h -3 l -1,-1 h -8 l -1,-1 z m 24,21 1,-1 h 13 l 1,1 4,1 3,3 1,4 1,1 v 5 l -1,1 -1,4 -3,3 -4,2 h -14 l -1,-1 z"
         fill="#000000"
         fill-rule="evenodd"
         id="path7"
         style="fill:#ffffff" />
      <path
         d="m 293,408 -4,8 -1,5 -2,3 v 2 l -3,6 -1,5 -2,3 v 2 l -2,3 -1,5 -4,8 -1,5 -2,3 -1,5 -4,8 -1,5 -2,3 v 2 l -3,6 v 2 l -3,6 v 2 h 26 v -2 l 1,-1 v -2 l 1,-1 2,-8 2,-3 h 36 l 1,1 2,8 2,3 1,5 h 26 l -1,-4 -1,-1 v -2 l -2,-3 -1,-5 -4,-8 -1,-5 -4,-8 -1,-5 -2,-3 -1,-5 -2,-3 -1,-5 -2,-3 v -2 l -2,-3 -1,-5 -2,-3 -1,-5 -4,-8 v -2 l -3,-6 v -2 l -1,-1 z m 13,29 2,3 v 2 l 1,1 v 2 l 1,1 2,8 2,3 v 2 l 1,1 v 2 l 1,1 v 2 l 2,4 -1,1 h -22 l -1,-1 2,-4 v -2 l 1,-1 v -2 l 1,-1 v -2 l 1,-1 2,-8 2,-3 1,-5 z"
         fill="#000000"
         fill-rule="evenodd"
         id="path8"
         style="fill:#ffffff" />
      <path
         d="m 173,408 v 97 h 24 v -36 l 1,-1 2,4 10,14 1,3 8,11 1,3 2,2 h 30 l -4,-5 v -1 l -3,-3 v -1 l -3,-3 v -1 l -4,-4 v -1 l -3,-3 v -1 l -3,-3 v -1 l -4,-4 v -1 l -6,-7 6,-3 h 2 l 2,-2 4,-2 4,-5 1,-4 1,-1 v -2 l 1,-1 v -15 l -1,-1 v -3 l -3,-6 -3,-3 v -1 l -5,-4 -4,-2 -5,-1 -1,-1 h -7 l -1,-1 z m 25,19 h 9 l 1,1 h 3 l 2,1 4,4 1,2 v 9 l -1,2 -4,4 -4,1 -1,1 h -10 l -1,-1 v -23 z"
         fill="#000000"
         fill-rule="evenodd"
         id="path9"
         style="fill:#ffffff" />
      <path
         d="m 649,406 -1,1 -7,1 -3,2 -4,1 -2,2 -6,3 -9,9 v 1 l -4,5 -3,6 v 2 l -2,4 v 3 l -1,1 v 19 l 1,1 v 3 l 1,1 1,5 4,8 6,7 v 1 l 8,7 14,7 8,1 1,1 h 13 l 1,-1 8,-1 1,-1 h 2 l 4,-2 v -28 l -7,6 -4,2 h -2 l -1,1 h -14 l -3,-2 h -2 l -2,-2 h -1 l -7,-7 v -1 l -2,-2 -1,-4 -1,-1 v -3 l -1,-1 v -8 l 1,-1 v -4 l 5,-9 7,-6 4,-2 h 2 l 1,-1 h 3 l 1,-1 h 6 l 1,1 h 4 l 8,4 5,5 1,-2 -1,-1 v -26 h -2 l -1,-1 h -2 l -4,-2 h -4 l -1,-1 z"
         fill="#000000"
         fill-rule="evenodd"
         id="path10"
         style="fill:#ffffff" />
      <path
         d="m 87,408 -14,7 -10,10 -6,11 -1,6 -1,1 v 4 l -1,1 v 17 l 1,1 v 5 l 1,1 1,5 2,3 v 2 l 2,2 3,6 8,8 6,3 2,2 h 2 l 3,2 h 2 l 4,2 h 5 l 1,1 h 15 l 1,-1 h 5 l 1,-1 8,-2 6,-3 6,-5 h 1 l 7,-8 1,-3 2,-2 1,-4 1,-1 v -2 l 1,-1 v -2 l 1,-1 v -5 l 1,-1 v -14 h -49 v 18 h 20 l 1,2 -1,1 v 2 l -2,4 -5,5 -4,2 h -3 l -1,1 h -11 l -1,-1 h -3 l -4,-2 -3,-3 h -1 l -4,-5 -3,-6 v -2 l -1,-1 v -5 l -1,-1 v -7 l 1,-1 v -5 l 1,-1 1,-5 3,-4 v -1 l 6,-6 8,-4 h 12 l 1,1 h 2 l 4,2 6,6 3,6 5,-3 h 2 l 3,-2 h 2 l 5,-3 h 2 l 4,-2 -2,-4 -4,-5 v -1 l -6,-6 h -1 l -3,-3 -8,-4 h -2 l -4,-2 h -4 l -1,-1 H 96 l -1,1 z"
         fill="#000000"
         fill-rule="evenodd"
         id="path11"
         style="fill:#ffffff" />
      <path
         d="m 420,329 -1,2 v 26 l 2,4 h 36 l 2,-3 v -28 l -1,-2 -2,-1 h -34 z"
         fill="#000000"
         fill-rule="evenodd"
         id="path12"
         style="fill:#ffffff" />
      <path
         d="m 483,308 -1,1 v 51 l 1,1 h 35 l 2,-2 v -50 l -4,-2 h -30 l -1,1 z"
         fill="#000000"
         fill-rule="evenodd"
         id="path13"
         style="fill:#ffffff" />
      <path
         d="m 546,292 -2,1 v 6 l -1,1 v 57 l 1,1 v 2 l 1,1 h 34 l 2,-2 v -64 l -2,-3 z"
         fill="#000000"
         fill-rule="evenodd"
         id="path14"
         style="fill:#ffffff" />
      <path
         d="m 608,248 -4,2 v 109 l 2,2 h 34 l 2,-2 V 251 l -1,-2 -2,-1 z"
         fill="#000000"
         fill-rule="evenodd"
         id="path15"
         style="fill:#ffffff" />
      <path
         d="m 638,185 -2,-4 -3,-3 -4,-2 h -2 l -1,-1 h -4 l -1,1 h -2 l -4,2 -5,7 v 4 l -1,1 1,1 v 5 l -43,44 -2,1 h -4 l -1,1 h -5 l -1,1 h -3 l -6,-3 -2,-2 -7,-3 -2,-2 -5,-2 -2,-2 -10,-5 -4,-4 -2,-8 -5,-5 -4,-1 -1,-1 h -6 l -1,1 h -2 l -2,1 -4,4 -2,4 v 11 l -6,6 h -1 l -8,8 h -1 l -8,8 h -1 l -8,8 h -1 l -10,9 -2,1 h -11 l -4,2 -4,4 -1,4 -1,1 v 6 l 1,1 v 2 l 1,2 5,5 4,1 1,1 h 6 l 1,-1 4,-1 3,-3 2,-4 v -7 l 2,-2 v -1 l 12,-12 h 1 l 8,-8 h 1 l 22,-20 2,-1 h 9 l 4,-2 h 4 l 2,2 7,3 2,2 5,2 2,2 5,2 2,2 8,4 4,4 v 3 l 3,6 2,2 6,3 h 6 l 1,-1 h 2 l 2,-1 4,-4 2,-4 v -11 l 5,-5 v -1 l 38,-38 h 7 l 1,-1 h 3 l 4,-2 3,-3 v -1 l 2,-2 v -3 l 1,-1 v -4 l -1,-1 z"
         fill="#000000"
         fill-rule="evenodd"
         id="path16"
         style="fill:#ffffff" />
      <path
         d="m 645,113 -3,3 -1,5 3,5 2,1 h 6 l 4,-5 v -5 l -1,-2 -3,-2 h -2 l -1,-1 z"
         fill="#000000"
         fill-rule="evenodd"
         id="path17"
         style="fill:#ffffff" />
      <path
         d="m 616,113 -3,3 v 7 l 1,2 3,2 h 6 l 2,-1 3,-6 -1,-1 v -3 l -3,-3 h -2 l -1,-1 z"
         fill="#000000"
         fill-rule="evenodd"
         id="path18"
         style="fill:#ffffff" />
      <path
         d="m 587,113 -3,3 v 2 l -1,1 v 2 l 2,4 3,2 h 6 l 2,-1 2,-3 v -7 l -3,-3 h -3 l -1,-1 z"
         fill="#000000"
         fill-rule="evenodd"
         id="path19"
         style="fill:#ffffff" />
      <path
         d="m 375,93 v 1 l -3,3 -1,4 -1,1 v 2 l -1,1 v 271 l 4,5 2,1 h 6 v -30 l 1,-1 v -15 l -1,-1 v -31 l 1,-1 v -15 l -1,-1 V 153 l 1,-1 h 289 l 1,1 v 229 h 7 l 4,-3 1,-4 1,-1 V 109 l -1,-1 -1,-8 -6,-8 h -1 l -5,-4 h -2 l -1,-1 h -4 l -1,-1 H 390 l -1,1 -6,1 -4,2 -3,3 z m 6,15 2,-4 4,-4 2,-1 h 276 l 2,1 4,4 1,2 v 32 l -1,1 H 383 l -2,-2 z"
         fill="#000000"
         fill-rule="evenodd"
         id="path20"
         style="fill:#ffffff" />
    </g>
  </g>
  <g
     id="icons"
     transform="translate(-4.0195312,-37.180664)">
    <g
       id="icon12"
       data-name="I nine"
       inkscape:label="icon12"
       transform="translate(3.3640808,132.26132)">
      <text
         id="nine-0"
         class="cls-8"
         transform="translate(601.28,472.02)"
         inkscape:label="text"
         style="font-weight:700;font-size:18px;font-family:Arial-BoldMT, Arial;fill:#ffffff">Example Twelve</text>
      <circle
         class="cls-6"
         cx="660.29999"
         cy="411.04001"
         r="36"
         transform="rotate(-80.78,660.33005,411.0285)"
         id="circle7-1"
         style="opacity:0.25;isolation:isolate;fill:#ffffff" />
      <circle
         class="cls-7"
         cx="660.29999"
         cy="411.04001"
         r="36"
         transform="rotate(-80.78,660.33005,411.0285)"
         id="circle8-9"
         style="fill:none;stroke:#ffffff;stroke-width:1.5px;stroke-miterlimit:10" />
    </g>
    <g
       id="H_eight-8"
       data-name="H eight"
       inkscape:label="icon11"
       transform="translate(3.3640808,139.76132)">
      <text
         id="text26"
         class="cls-8"
         inkscape:label="text"
         style="font-weight:700;font-size:18px;font-family:Arial-BoldMT, Arial;fill:#ffffff"
         x="334.38"
         y="464.51999">Example Eleven</text>
      <circle
         class="cls-6"
         cx="-334.83121"
         cy="455.95078"
         r="36"
         transform="rotate(-80.78)"
         id="circle26"
         style="opacity:0.25;isolation:isolate;fill:#ffffff" />
      <circle
         class="cls-7"
         cx="-334.83121"
         cy="455.95078"
         r="36"
         transform="rotate(-80.78)"
         id="circle27"
         style="fill:none;stroke:#ffffff;stroke-width:1.5px;stroke-miterlimit:10" />
    </g>
    <g
       id="G_seven-6"
       data-name="G seven"
       inkscape:label="icon10"
       transform="translate(3.3640808,139.76132)"
       style="display:inline">
      <text
         id="text3"
         class="cls-8"
         inkscape:label="text"
         style="font-weight:700;font-size:18px;font-family:Arial-BoldMT, Arial;fill:#ffffff"
         x="66.440002"
         y="464.51999">Example Ten</text>
      <circle
         class="cls-6"
         cx="-377.10938"
         cy="195.43379"
         r="36"
         transform="rotate(-80.78)"
         id="circle4"
         style="opacity:0.25;isolation:isolate;fill:#ffffff" />
      <circle
         class="cls-7"
         cx="-377.10938"
         cy="195.43379"
         r="36"
         transform="rotate(-80.78)"
         id="circle5"
         style="fill:none;stroke:#ffffff;stroke-width:1.5px;stroke-miterlimit:10" />
    </g>
    <g
       id="I_nine"
       data-name="I nine"
       inkscape:label="icon9"
       style="display:inline">
      <text
         id="nine"
         class="cls-8"
         transform="translate(601.28,472.02)"
         inkscape:label="text">Example Nine</text>
      <circle
         class="cls-6"
         cx="660.29999"
         cy="411.04001"
         r="36"
         transform="rotate(-80.78,660.33005,411.0285)"
         id="circle7" />
      <circle
         class="cls-7"
         cx="660.29999"
         cy="411.04001"
         r="36"
         transform="rotate(-80.78,660.33005,411.0285)"
         id="circle8" />
    </g>
    <g
       id="H_eight"
       data-name="H eight"
       inkscape:label="icon8">
      <text
         id="eight"
         class="cls-8"
         inkscape:label="text"
         transform="translate(334.38,472.02)">Example Eight</text>
      <circle
         class="cls-6"
         cx="396.39001"
         cy="411.04001"
         r="36"
         transform="rotate(-80.78,396.41269,411.03761)"
         id="circle9" />
      <circle
         class="cls-7"
         cx="396.39001"
         cy="411.04001"
         r="36"
         transform="rotate(-80.78,396.41269,411.03761)"
         id="circle10" />
    </g>
    <g
       id="G_seven"
       data-name="G seven"
       inkscape:label="icon7">
      <text
         id="seven"
         class="cls-8"
         inkscape:label="text"
         transform="translate(66.44,472.02)">Example Seven</text>
      <circle
         class="cls-6"
         cx="132.48"
         cy="411.04001"
         r="36"
         transform="rotate(-80.78,132.48945,411.04173)"
         id="circle11" />
      <circle
         class="cls-7"
         cx="132.48"
         cy="411.04001"
         r="36"
         transform="rotate(-80.78,132.48945,411.04173)"
         id="circle12" />
    </g>
    <g
       id="F_six"
       data-name="F six"
       inkscape:label="icon6">
      <text
         id="six"
         class="cls-8"
         inkscape:label="text"
         transform="translate(607.28,336.09)">Example Six</text>
      <circle
         class="cls-6"
         cx="660.29999"
         cy="275.10999"
         r="36"
         transform="rotate(-80.78,660.32344,275.10689)"
         id="circle13" />
      <circle
         class="cls-7"
         cx="660.29999"
         cy="275.10999"
         r="36"
         transform="rotate(-80.78,660.32344,275.10689)"
         id="circle14" />
    </g>
    <g
       id="E_five"
       data-name="E five"
       inkscape:label="icon5">
      <text
         id="five"
         class="cls-8"
         inkscape:label="text"
         transform="translate(338.86,336.09)">Example Five</text>
      <circle
         class="cls-6"
         cx="396.39001"
         cy="275.10999"
         r="36"
         transform="rotate(-80.78,396.41108,275.11013)"
         id="circle15" />
      <circle
         class="cls-7"
         cx="396.39001"
         cy="275.10999"
         r="36"
         transform="rotate(-80.78,396.41108,275.11013)"
         id="circle16" />
    </g>
    <g
       id="D_four"
       data-name="D four"
       inkscape:label="icon4">
      <text
         id="four"
         class="cls-8"
         inkscape:label="text"
         transform="translate(72.96,336.09)">Example Four</text>
      <circle
         class="cls-6"
         cx="132.48"
         cy="275.10999"
         r="36"
         transform="rotate(-80.78,132.48784,275.11424)"
         id="circle17" />
      <circle
         class="cls-7"
         cx="132.48"
         cy="275.10999"
         r="36"
         transform="rotate(-80.78,132.48784,275.11424)"
         id="circle18" />
    </g>
    <g
       id="C_three"
       data-name="C three"
       inkscape:label="icon3">
      <text
         id="three"
         class="cls-8"
         inkscape:label="text"
         transform="translate(596.28,201.55)">Example Three</text>
      <circle
         class="cls-6"
         cx="660.29999"
         cy="140.57001"
         r="36"
         transform="rotate(-80.78,660.32356,140.55868)"
         id="circle19" />
      <circle
         class="cls-7"
         cx="660.29999"
         cy="140.57001"
         r="36"
         transform="rotate(-80.78,660.32356,140.55868)"
         id="circle20" />
    </g>
    <g
       id="B_two"
       data-name="B two"
       inkscape:label="icon2">
      <text
         id="two"
         class="cls-8"
         inkscape:label="text"
         transform="translate(339.54,201.55)">Example <tspan
   class="cls-9"
   x="79.040001"
   y="0"
   id="tspan24">T</tspan><tspan
   x="88.699997"
   y="0"
   id="tspan25">wo</tspan></text>
      <circle
         class="cls-6"
         cx="396.39001"
         cy="140.57001"
         r="36"
         transform="rotate(-80.78,396.4062,140.5678)"
         id="circle21" />
      <circle
         class="cls-7"
         cx="396.39001"
         cy="140.57001"
         r="36"
         transform="rotate(-80.78,396.4062,140.5678)"
         id="circle22" />
    </g>
    <g
       id="A_one"
       data-name="A one"
       style="display:inline"
       inkscape:label="icon1">
      <text
         id="one"
         class="cls-8"
         style="display:inline"
         inkscape:label="text"
         transform="translate(75.45,201.55)">Example One</text>
      <circle
         class="cls-6"
         cx="132.48"
         cy="140.57001"
         r="36"
         transform="rotate(-80.78,132.48296,140.57191)"
         id="circle23" />
      <circle
         class="cls-7"
         cx="132.48"
         cy="140.57001"
         r="36"
         transform="rotate(-80.78,132.48296,140.57191)"
         id="circle24" />
    </g>
  </g>
  <g
     id="text"
     transform="translate(-197.78682,-436.41131)">
    <text
       id="text25"
       class="cls-8"
       transform="translate(601.28,472.02)"
       inkscape:label="example text">Example text for text layer</text>
  </g>
</svg>
