<?xml version="1.0" encoding="UTF-8" standalone="no"?>
<svg
   id="svg25"
   version="1.1"
   viewBox="0 0 792 612"
   sodipodi:docname="create_svg_template_inkscape.svg"
   inkscape:version="1.4 (e7c3feb1, 2024-10-09)"
   xmlns:inkscape="http://www.inkscape.org/namespaces/inkscape"
   xmlns:sodipodi="http://sodipodi.sourceforge.net/DTD/sodipodi-0.dtd"
   xmlns="http://www.w3.org/2000/svg"
   xmlns:svg="http://www.w3.org/2000/svg">
  <!-- Generator: Adobe Illustrator 30.0.0, SVG Export Plug-In . SVG Version: 2.1.1 Build 123)  -->
  <defs
     id="defs2">
    <style
       id="style1">
      .st0, .st1 {
        fill: #000f42;
        font-size: 24.48px;
      }

      .st0, .st1, .st2, .st3, .st4, .st5, .st6 {
        isolation: isolate;
      }

      .st0, .st1, .st3, .st4 {
        font-family: Arial-BoldMT, Arial;
        font-weight: 700;
      }

      .st7 {
        fill-rule: evenodd;
      }

      .st7, .st3, .st4, .st5, .st6 {
        fill: #fff;
      }

      .st8 {
        fill: url(#linear-gradient);
      }

      .st1 {
        letter-spacing: -.02em;
      }

      .st3 {
        letter-spacing: -.07em;
      }

      .st3, .st4 {
        font-size: 18px;
      }

      .st9 {
        fill: none;
        stroke: #fff;
        stroke-miterlimit: 10;
        stroke-width: 1.5px;
      }

      .st5 {
        opacity: .75;
      }

      .st6 {
        opacity: .25;
      }
    </style>
    <linearGradient
       id="linear-gradient"
       x1="395.89"
       y1="274.72"
       x2="395.89"
       y2="1075.45"
       gradientTransform="translate(0 -466)"
       gradientUnits="userSpaceOnUse">
      <stop
         offset="0"
         stop-color="#6aa8c4"
         id="stop1" />
      <stop
         offset="1"
         stop-color="#aed4e5"
         id="stop2" />
    </linearGradient>
  </defs>
  <sodipodi:namedview
     id="namedview25"
     bordercolor="#666666"
     borderopacity="1.0"
     inkscape:current-layer="icons"
     inkscape:cx="233.52981"
     inkscape:cy="169.92616"
     inkscape:deskcolor="#d1d1d1"
     inkscape:document-units="in"
     inkscape:pagecheckerboard="0"
     inkscape:pageopacity="0.0"
     inkscape:showpageshadow="2"
     inkscape:window-height="1186"
     inkscape:window-maximized="0"
     inkscape:window-width="1336"
     inkscape:window-x="328"
     inkscape:window-y="49"
     inkscape:zoom="0.52669936"
     pagecolor="#ffffff" />
  <g
     id="mobile">
    <g
       id="icon12-mobile"
       inkscape:label="icon12-mobile">
      <text
         id="nine-0-3"
         class="st4"
         inkscape:label="text"
         transform="translate(596.14 555.21)"><tspan
           x="0"
           y="0"
           id="tspan2">Example Twelve</tspan></text>
      <circle
         id="circle7-1-9"
         class="st6"
         cx="655.2"
         cy="494.25"
         r="36" />
      <circle
         id="circle8-9-8"
         class="st9"
         cx="655.2"
         cy="494.25"
         r="36" />
    </g>
    <g
       id="icon11-mobile"
       inkscape:label="icon11-mobile">
      <text
         id="text26-5"
         class="st4"
         inkscape:label="text"
         transform="translate(329.24 555.21)"><tspan
           x="0"
           y="0"
           id="tspan3">Example Eleven</tspan></text>
      <circle
         id="circle26-7"
         class="st6"
         cx="391.28"
         cy="494.25"
         r="36" />
      <circle
         id="circle27-6"
         class="st9"
         cx="391.28"
         cy="494.25"
         r="36" />
    </g>
    <g
       id="icon10-mobile"
       inkscape:label="icon10-mobile">
      <text
         id="text3-7"
         class="st4"
         inkscape:label="text"
         transform="translate(61.3 555.21)"><tspan
           x="0"
           y="0"
           id="tspan4">Example Ten</tspan></text>
      <circle
         id="circle4-0"
         class="st6"
         cx="127.35"
         cy="494.24"
         r="36" />
      <circle
         id="circle5-3"
         class="st9"
         cx="127.35"
         cy="494.24"
         r="36" />
    </g>
    <g
       id="icon9-mobile"
       inkscape:label="icon9-mobile">
      <text
         id="nine-9"
         class="st4"
         inkscape:label="text"
         transform="translate(592.78 422.95)"><tspan
           x="0"
           y="0"
           id="tspan5">Example Nine</tspan></text>
      <circle
         id="circle7-9"
         class="st6"
         cx="651.84"
         cy="361.99"
         r="36" />
      <circle
         id="circle8-1"
         class="st9"
         cx="651.84"
         cy="361.99"
         r="36" />
    </g>
    <g
       id="icon8-mobile"
       inkscape:label="icon8-mobile">
      <text
         id="eight-2"
         class="st4"
         inkscape:label="text"
         transform="translate(325.88 422.95)"><tspan
           x="0"
           y="0"
           id="tspan6">Example Eight</tspan></text>
      <circle
         id="circle9-3"
         class="st6"
         cx="387.91"
         cy="361.99"
         r="36" />
      <circle
         id="circle10-6"
         class="st9"
         cx="387.91"
         cy="361.99"
         r="36" />
    </g>
    <g
       id="icon7-mobile"
       inkscape:label="icon7-mobile">
      <text
         id="seven-5"
         class="st4"
         inkscape:label="text"
         transform="translate(57.94 422.95)"><tspan
           x="0"
           y="0"
           id="tspan7">Example Seven</tspan></text>
      <circle
         id="circle11-8"
         class="st6"
         cx="123.99"
         cy="361.98"
         r="36" />
      <circle
         id="circle12-1"
         class="st9"
         cx="123.99"
         cy="361.98"
         r="36" />
    </g>
    <g
       id="icon6-mobile"
       inkscape:label="icon6-mobile">
      <text
         id="six-7"
         class="st4"
         inkscape:label="text"
         transform="translate(598.78 287.02)"><tspan
           x="0"
           y="0"
           id="tspan8">Example Six</tspan></text>
      <circle
         id="circle13-1"
         class="st6"
         cx="651.82"
         cy="226.06"
         r="36" />
      <circle
         id="circle14-3"
         class="st9"
         cx="651.82"
         cy="226.06"
         r="36" />
    </g>
    <g
       id="icon5-mobile"
       inkscape:label="icon5-mobile">
      <text
         id="five-4"
         class="st4"
         inkscape:label="text"
         transform="translate(330.36 287.02)"><tspan
           x="0"
           y="0"
           id="tspan9">Example Five</tspan></text>
      <circle
         id="circle15-8"
         class="st6"
         cx="387.91"
         cy="226.06"
         r="36" />
      <circle
         id="circle16-0"
         class="st9"
         cx="387.91"
         cy="226.06"
         r="36" />
    </g>
    <g
       id="icon4-mobile"
       inkscape:label="icon4-mobile">
      <text
         id="four-6"
         class="st4"
         inkscape:label="text"
         transform="translate(64.46 287.02)"><tspan
           x="0"
           y="0"
           id="tspan10">Example Four</tspan></text>
      <circle
         id="circle17-0"
         class="st6"
         cx="123.98"
         cy="226.05"
         r="36" />
      <circle
         id="circle18-3"
         class="st9"
         cx="123.98"
         cy="226.05"
         r="36" />
    </g>
    <g
       id="icon3-mobile"
       inkscape:label="icon3-mobile">
      <text
         id="three-6"
         class="st4"
         inkscape:label="text"
         transform="translate(587.78 152.48)"><tspan
           x="0"
           y="0"
           id="tspan11">Example Three</tspan></text>
      <circle
         id="circle19-9"
         class="st6"
         cx="651.83"
         cy="91.51"
         r="36" />
      <circle
         id="circle20-4"
         class="st9"
         cx="651.83"
         cy="91.51"
         r="36" />
    </g>
    <g
       id="icon2-mobile"
       inkscape:label="icon2-mobile">
      <text
         class="st4"
         transform="translate(331.04,152.48)"
         id="text12"
         inkscape:label="text"><tspan
           x="0"
           y="0"
           id="tspan12">Example Two</tspan></text>
      <circle
         id="circle21-8"
         class="st6"
         cx="387.91"
         cy="91.51"
         r="36" />
      <circle
         id="circle22-3"
         class="st9"
         cx="387.91"
         cy="91.51"
         r="36" />
    </g>
    <g
       id="icon1-mobile"
       inkscape:label="icon1-mobile">
      <text
         id="one-1"
         class="st4"
         inkscape:label="text"
         transform="translate(66.95 152.48)"><tspan
           x="0"
           y="0"
           id="tspan15">Example One</tspan></text>
      <circle
         id="circle23-5"
         class="st6"
         cx="123.98"
         cy="91.5"
         r="36" />
      <circle
         id="circle24-3"
         class="st9"
         cx="123.98"
         cy="91.5"
         r="36" />
    </g>
  </g>
  <g
     id="background">
    <rect
       id="_Path_"
       class="st8"
       x="-.11"
       y="-.5"
       width="792"
       height="612"
       inkscape:label="background_color" />
    <g
       id="title">
      <rect
         id="title_background"
         class="st5"
         x="-0.0010276251"
         y="14.575771"
         width="241.2"
         height="36" />
      <text
         class="st0"
         id="title_text"
         x="9.2999992"
         y="40.200001"><tspan
           x="9.2999992"
           y="40.200001"
           id="tspan16">Example title</tspan></text>
    </g>
    <g
       id="logo">
      <path
         id="path1"
         class="st7"
         d="M775.87,61.62l-.24.48-.12.6-.24.36-.12.6-.48.96-.12.6-.24.36-.12.6-.48.96-.12.6-.24.36-.12.6-.24.36-.12.6-.48.96-.12.6-.48.96-.12.6-.24.36h3.11l.36-.72.24-.96.24-.36h4.19l.24.24v.24l.24.36v.24l.12.12v.24l.12.12.12.48h3.11l-.24-.48-.12-.6-.24-.36v-.24l-.24-.36-.12-.6-.24-.36-.12-.6-.24-.36-.12-.6-.48-.96-.12-.6-.48-.96v-.24l-.36-.72-.12-.6-.24-.36-.12-.6-.48-.96v-.24l-.12-.12-.12-.48-.12-.12h-3.23ZM777.55,64.96l.12.12v.24l.12.12.24.96.24.36v.24l.12.12v.24l.12.12v.24l.12.12.24.96-.12.12h-2.51l-.12-.24.12-.12.24-.96.24-.36v-.24l.12-.12v-.24l.12-.12v-.24l.12-.12.24-.96.24-.24Z" />
      <path
         id="path2-6"
         class="st7"
         d="M763.67,61.62v2.39h2.39l.12.12v8.97h2.99v-8.97l.12-.12h2.39v-2.39h-8.01Z" />
      <path
         id="path3-1"
         class="st7"
         d="M756.14,61.62v.24l-.24.36-.12.6-.48.96-.12.6-.24.36-.12.6-.48.96-.12.6-.24.36-.12.6-.24.36-.12.6-.48.96-.12.6-.24.36-.12.6-.24.36v.24l-.24.36v.24l-.12.12-.12.48h3.11v-.24l.36-.72.12-.6.36-.48h4.07l.36.48v.24l.24.36.24.96h3.11v-.24l-.24-.36v-.24l-.24-.36-.12-.6-.48-.96-.12-.6-.24-.36-.12-.6-.48-.96-.12-.6-.24-.36-.12-.6-.24-.36-.12-.6-.48-.96-.12-.6-.24-.36v-.24l-.36-.72v-.24l-.24-.36v-.24h-3.35ZM757.81,64.96l.24.36v.24l.12.12.24.96.24.36v.24l.12.12v.24l.12.12v.24l.12.12v.24l.24.48-.12.12h-2.63l-.12-.12.12-.12v-.24l.12-.12v-.24l.12-.12.24-.96.24-.36v-.24l.12-.12.24-.96.24-.36Z" />
      <path
         id="path4-1"
         class="st7"
         d="M741.19,61.62v11.48h5.5l.12-.12.72-.12.96-.48.72-.6h.12l.96-1.08.6-1.08v-.24l.24-.48v-.36l.12-.12v-.84l.12-.12v-.24l-.12-.12v-.96l-.12-.12-.24-.96-.6-1.08-.48-.48v-.12l-.96-.84-1.67-.84h-.48l-.12-.12h-5.38ZM744.18,64.01h1.2l.12.12h.48l.96.48.96,1.08.12.48.12.12v.36l.12.12v1.2l-.12.12v.36l-.12.12v.24l-.24.48-.96.96-.48.24h-.24l-.12.12h-.36l-.12.12h-1.32l-.12-.12v-6.46l.12-.12Z" />
      <path
         id="path5-5"
         class="st7"
         d="M769.77,46.79v11.6h2.87v-11.6h-2.87Z" />
      <path
         id="path6-6"
         class="st7"
         d="M756.86,46.79v11.6h2.87v-4.66l.12-.12h4.3l.12.12v4.66h2.87v-11.6h-2.87v4.42l-.12.12h-4.3l-.12-.12v-4.42h-2.87Z" />
      <path
         id="path7"
         class="st7"
         d="M746.34,46.79v11.6h2.87v-3.71l.12-.12h2.39l.12-.12h.6l.12-.12.6-.12.48-.36h.12l.72-.72.48-.96v-.36l.12-.12v-1.91l-.12-.12-.12-.72-.48-.84-.6-.6-.96-.48h-.36l-.12-.12h-.96l-.12-.12h-4.9ZM749.21,49.3l.12-.12h1.55l.12.12.48.12.36.36.12.48.12.12v.6l-.12.12-.12.48-.36.36-.48.24h-1.67l-.12-.12v-2.75Z" />
      <path
         id="path8"
         class="st7"
         d="M737.25,46.79l-.48.96-.12.6-.24.36v.24l-.36.72-.12.6-.24.36v.24l-.24.36-.12.6-.48.96-.12.6-.24.36-.12.6-.48.96-.12.6-.24.36v.24l-.36.72v.24l-.36.72v.24h3.11v-.24l.12-.12v-.24l.12-.12.24-.96.24-.36h4.3l.12.12.24.96.24.36.12.6h3.11l-.12-.48-.12-.12v-.24l-.24-.36-.12-.6-.48-.96-.12-.6-.48-.96-.12-.6-.24-.36-.12-.6-.24-.36-.12-.6-.24-.36v-.24l-.24-.36-.12-.6-.24-.36-.12-.6-.48-.96v-.24l-.36-.72v-.24l-.12-.12h-3.11ZM738.8,50.26l.24.36v.24l.12.12v.24l.12.12.24.96.24.36v.24l.12.12v.24l.12.12v.24l.24.48-.12.12h-2.63l-.12-.12.24-.48v-.24l.12-.12v-.24l.12-.12v-.24l.12-.12.24-.96.24-.36.12-.6.24-.36Z" />
      <path
         id="path9"
         class="st7"
         d="M722.9,46.79v11.6h2.87v-4.3l.12-.12.24.48,1.2,1.67.12.36.96,1.32.12.36.24.24h3.59l-.48-.6v-.12l-.36-.36v-.12l-.36-.36v-.12l-.48-.48v-.12l-.36-.36v-.12l-.36-.36v-.12l-.48-.48v-.12l-.72-.84.72-.36h.24l.24-.24.48-.24.48-.6.12-.48.12-.12v-.24l.12-.12v-1.79l-.12-.12v-.36l-.36-.72-.36-.36v-.12l-.6-.48-.48-.24-.6-.12-.12-.12h-.84l-.12-.12h-4.78ZM725.89,49.06h1.08l.12.12h.36l.24.12.48.48.12.24v1.08l-.12.24-.48.48-.48.12-.12.12h-1.2l-.12-.12v-2.75l.12-.12Z" />
      <path
         id="path10"
         class="st7"
         d="M779.82,46.55l-.12.12-.84.12-.36.24-.48.12-.24.24-.72.36-1.08,1.08v.12l-.48.6-.36.72v.24l-.24.48v.36l-.12.12v2.27l.12.12v.36l.12.12.12.6.48.96.72.84v.12l.96.84,1.67.84.96.12.12.12h1.55l.12-.12.96-.12.12-.12h.24l.48-.24v-3.35l-.84.72-.48.24h-.24l-.12.12h-1.67l-.36-.24h-.24l-.24-.24h-.12l-.84-.84v-.12l-.24-.24-.12-.48-.12-.12v-.36l-.12-.12v-.96l.12-.12v-.48l.6-1.08.84-.72.48-.24h.24l.12-.12h.36l.12-.12h.72l.12.12h.48l.96.48.6.6.12-.24-.12-.12v-3.11h-.24l-.12-.12h-.24l-.48-.24h-.48l-.12-.12h-2.03Z" />
      <path
         id="path11"
         class="st7"
         d="M712.61,46.79l-1.67.84-1.2,1.2-.72,1.32-.12.72-.12.12v.48l-.12.12v2.03l.12.12v.6l.12.12.12.6.24.36v.24l.24.24.36.72.96.96.72.36.24.24h.24l.36.24h.24l.48.24h.6l.12.12h1.79l.12-.12h.6l.12-.12.96-.24.72-.36.72-.6h.12l.84-.96.12-.36.24-.24.12-.48.12-.12v-.24l.12-.12v-.24l.12-.12v-.6l.12-.12v-1.67h-5.86v2.15h2.39l.12.24-.12.12v.24l-.24.48-.6.6-.48.24h-.36l-.12.12h-1.32l-.12-.12h-.36l-.48-.24-.36-.36h-.12l-.48-.6-.36-.72v-.24l-.12-.12v-.6l-.12-.12v-.84l.12-.12v-.6l.12-.12.12-.6.36-.48v-.12l.72-.72.96-.48h1.43l.12.12h.24l.48.24.72.72.36.72.6-.36h.24l.36-.24h.24l.6-.36h.24l.48-.24-.24-.48-.48-.6v-.12l-.72-.72h-.12l-.36-.36-.96-.48h-.24l-.48-.24h-.48l-.12-.12h-2.27l-.12.12-.96.12Z" />
      <path
         id="path12"
         class="st7"
         d="M752.43,37.34l-.12.24v3.11l.24.48h4.3l.24-.36v-3.35l-.12-.24-.24-.12h-4.07l-.24.24Z" />
      <path
         id="path13"
         class="st7"
         d="M759.97,34.83l-.12.12v6.1l.12.12h4.19l.24-.24v-5.98l-.48-.24h-3.59l-.12.12h-.24Z" />
      <path
         id="path14"
         class="st7"
         d="M767.5,32.92l-.24.12v.72l-.12.12v6.82l.12.12v.24l.12.12h4.07l.24-.24v-7.65l-.24-.36h-3.95Z" />
      <path
         id="path15"
         class="st7"
         d="M774.91,27.66l-.48.24v13.03l.24.24h4.07l.24-.24v-12.91l-.12-.24-.24-.12h-3.71Z" />
      <path
         id="path16"
         class="st7"
         d="M778.5,20.12l-.24-.48-.36-.36-.48-.24h-.24l-.12-.12h-.48l-.12.12h-.24l-.48.24-.6.84v.48l-.12.12.12.12v.6l-5.14,5.26-.24.12h-.48l-.12.12h-.6l-.12.12h-.36l-.72-.36-.24-.24-.84-.36-.24-.24-.6-.24-.24-.24-1.2-.6-.48-.48-.24-.96-.6-.6-.48-.12-.12-.12h-.72l-.12.12h-.24l-.24.12-.48.48-.24.48v1.32l-.72.72h-.12l-.96.96h-.12l-.96.96h-.12l-.96.96h-.12l-1.2,1.08-.24.12h-1.32l-.48.24-.48.48-.12.48-.12.12v.72l.12.12v.24l.12.24.6.6.48.12.12.12h.72l.12-.12.48-.12.36-.36.24-.48v-.84l.24-.24v-.12l1.43-1.43h.12l.96-.96h.12l2.63-2.39.24-.12h1.08l.48-.24h.48l.24.24.84.36.24.24.6.24.24.24.6.24.24.24.96.48.48.48v.36l.36.72.24.24.72.36h.72l.12-.12h.24l.24-.12.48-.48.24-.48v-1.32l.6-.6v-.12l4.54-4.54h.84l.12-.12h.36l.48-.24.36-.36v-.12l.24-.24v-.36l.12-.12v-.48l-.12-.12v-.24Z" />
      <path
         id="path17"
         class="st7"
         d="M779.34,11.51l-.36.36-.12.6.36.6.24.12h.72l.48-.6v-.6l-.12-.24-.36-.24h-.24l-.12-.12-.48.12Z" />
      <path
         id="path18"
         class="st7"
         d="M775.87,11.51l-.36.36v.84l.12.24.36.24h.72l.24-.12.36-.72-.12-.12v-.36l-.36-.36h-.24l-.12-.12-.6.12Z" />
      <path
         id="path19"
         class="st7"
         d="M772.4,11.51l-.36.36v.24l-.12.12v.24l.24.48.36.24h.72l.24-.12.24-.36v-.84l-.36-.36h-.36l-.12-.12-.48.12Z" />
      <path
         id="path20"
         class="st7"
         d="M747.05,9.12v.12l-.36.36-.12.48-.12.12v.24l-.12.12v32.41l.48.6.24.12h.72v-3.59l.12-.12v-1.79l-.12-.12v-3.71l.12-.12v-1.79l-.12-.12v-16.02l.12-.12h34.56l.12.12v27.38h.84l.48-.36.12-.48.12-.12V11.03l-.12-.12-.12-.96-.72-.96h-.12l-.6-.48h-.24l-.12-.12h-.48l-.12-.12h-32.65l-.12.12-.72.12-.48.24-.36.36h-.12ZM747.77,10.91l.24-.48.48-.48.24-.12h33l.24.12.48.48.12.24v3.83l-.12.12h-34.44l-.24-.24v-3.47Z" />
    </g>
  </g>
  <g
     id="icons"
     style="display:inline">
    <g
       id="icon12"
       inkscape:label="icon12">
      <text
         id="nine-0"
         class="st4"
         inkscape:label="text"
         transform="translate(600.62,567.1)"><tspan
           x="0"
           y="0"
           id="tspan19">Example Twelve</tspan></text>
      <circle
         id="circle7-1"
         class="st6"
         cx="659.67999"
         cy="506.14001"
         r="36" />
      <circle
         id="circle8-9"
         class="st9"
         cx="659.67999"
         cy="506.14001"
         r="36" />
    </g>
    <g
       id="icon11"
       inkscape:label="icon11">
      <text
         id="text26"
         class="st4"
         inkscape:label="text"
         transform="translate(333.72,567.1)"><tspan
           x="0"
           y="0"
           id="tspan20">Example Eleven</tspan></text>
      <circle
         id="circle26"
         class="st6"
         cx="395.76001"
         cy="506.14001"
         r="36" />
      <circle
         id="circle27"
         class="st9"
         cx="395.76001"
         cy="506.14001"
         r="36" />
    </g>
    <g
       id="icon10"
       inkscape:label="icon10">
      <text
         id="text3"
         class="st4"
         inkscape:label="text"
         transform="translate(65.78,567.1)"><tspan
           x="0"
           y="0"
           id="tspan21">Example Ten</tspan></text>
      <circle
         id="circle4"
         class="st6"
         cx="131.83"
         cy="506.13"
         r="36" />
      <circle
         id="circle5"
         class="st9"
         cx="131.83"
         cy="506.13"
         r="36" />
    </g>
    <g
       id="icon9"
       inkscape:label="icon9">
      <text
         id="nine"
         class="st4"
         inkscape:label="text"
         transform="translate(597.26,434.84)"><tspan
           x="0"
           y="0"
           id="tspan22">Example Nine</tspan></text>
      <circle
         id="circle7"
         class="st6"
         cx="656.32001"
         cy="373.88"
         r="36" />
      <circle
         id="circle8"
         class="st9"
         cx="656.32001"
         cy="373.88"
         r="36" />
    </g>
    <g
       id="icon8"
       inkscape:label="icon8">
      <text
         id="eight"
         class="st4"
         inkscape:label="text"
         transform="translate(330.36,434.84)"><tspan
           x="0"
           y="0"
           id="tspan23">Example Eight</tspan></text>
      <circle
         id="circle9"
         class="st6"
         cx="392.39001"
         cy="373.88"
         r="36" />
      <circle
         id="circle10"
         class="st9"
         cx="392.39001"
         cy="373.88"
         r="36" />
    </g>
    <g
       id="icon7"
       inkscape:label="icon7">
      <text
         id="seven"
         class="st4"
         inkscape:label="text"
         transform="translate(62.42,434.84)"><tspan
           x="0"
           y="0"
           id="tspan24">Example Seven</tspan></text>
      <circle
         id="circle11"
         class="st6"
         cx="128.47"
         cy="373.87"
         r="36" />
      <circle
         id="circle12"
         class="st9"
         cx="128.47"
         cy="373.87"
         r="36" />
    </g>
    <g
       id="icon6"
       inkscape:label="icon6">
      <text
         id="six"
         class="st4"
         inkscape:label="text"
         transform="translate(603.26,298.91)"><tspan
           x="0"
           y="0"
           id="tspan25">Example Six</tspan></text>
      <circle
         id="circle13"
         class="st6"
         cx="656.29999"
         cy="237.95"
         r="36" />
      <circle
         id="circle14"
         class="st9"
         cx="656.29999"
         cy="237.95"
         r="36" />
    </g>
    <g
       id="icon5"
       inkscape:label="icon5">
      <text
         id="five"
         class="st4"
         inkscape:label="text"
         transform="translate(334.84,298.91)"><tspan
           x="0"
           y="0"
           id="tspan26">Example Five</tspan></text>
      <circle
         id="circle15"
         class="st6"
         cx="392.39001"
         cy="237.95"
         r="36" />
      <circle
         id="circle16"
         class="st9"
         cx="392.39001"
         cy="237.95"
         r="36" />
    </g>
    <g
       id="icon4"
       inkscape:label="icon4">
      <text
         id="four"
         class="st4"
         inkscape:label="text"
         transform="translate(68.94,298.91)"><tspan
           x="0"
           y="0"
           id="tspan27">Example Four</tspan></text>
      <circle
         id="circle17"
         class="st6"
         cx="128.46001"
         cy="237.94"
         r="36" />
      <circle
         id="circle18"
         class="st9"
         cx="128.46001"
         cy="237.94"
         r="36" />
    </g>
    <g
       id="icon3"
       inkscape:label="icon3">
      <text
         id="three"
         class="st4"
         inkscape:label="text"
         transform="translate(592.26,164.37)"><tspan
           x="0"
           y="0"
           id="tspan28">Example Three</tspan></text>
      <circle
         id="circle19"
         class="st6"
         cx="656.31"
         cy="103.4"
         r="36" />
      <circle
         id="circle20"
         class="st9"
         cx="656.31"
         cy="103.4"
         r="36" />
    </g>
    <g
       id="icon2"
       inkscape:label="icon2">
      <text
         class="st4"
         transform="translate(335.52,164.37)"
         id="text29"
         inkscape:label="text"><tspan
           x="0"
           y="0"
           id="tspan29">Example Two</tspan></text>
      <circle
         id="circle21"
         class="st6"
         cx="392.39001"
         cy="103.4"
         r="36" />
      <circle
         id="circle22"
         class="st9"
         cx="392.39001"
         cy="103.4"
         r="36" />
    </g>
    <g
       id="icon1"
       inkscape:label="icon1">
      <text
         id="text33"
         class="st4"
         inkscape:label="text"
         transform="translate(71.43,164.37)"><tspan
           x="0"
           y="0"
           id="tspan32">Example One</tspan></text>
      <circle
         id="circle23"
         class="st6"
         cx="128.46001"
         cy="103.39"
         r="36" />
      <circle
         id="circle24"
         class="st9"
         cx="128.46001"
         cy="103.39"
         r="36" />
    </g>
  </g>
  <g
     id="text"
     data-name="text"
     transform="translate(76)">
    <text
       id="text25"
       class="st4"
       inkscape:label="example text"
       transform="translate(403.49,35.61)"><tspan
         x="0"
         y="0"
         id="tspan33">Example text for text layer</tspan></text>
  </g>
</svg>
